<svg id="Flat" height="512" viewBox="0 0 512 512" width="512" xmlns="http://www.w3.org/2000/svg"><g><path d="m48 448v-158a10 10 0 0 1 10-10h404a10 10 0 0 1 10 10v158z" fill="#f7b17c"/><path d="m420 400h-328a20 20 0 0 0 -20 20v28h368v-28a20 20 0 0 0 -20-20z" fill="#cc6d3d"/><path d="m256 24a72 72 0 0 1 72 72v128a0 0 0 0 1 0 0h-144a0 0 0 0 1 0 0v-128a72 72 0 0 1 72-72z" fill="#8d5aed"/><g><path d="m168 256v-18.14a20 20 0 0 1 12.978-18.727l47.626-17.86a20 20 0 0 1 7.023-1.273h40.746a20 20 0 0 1 7.023 1.273l47.626 17.86a20 20 0 0 1 12.978 18.727v10.14" fill="#e062c2"/><path d="m272 160h-32l-8 40 24 40 24-40z" fill="#ffd4cf"/><path d="m272 160h-32l-4.475 22.374 1.954 1.172a36 36 0 0 0 37.042 0l1.954-1.172z" fill="#fbb8b0"/></g><path d="m288 104a48.02 48.02 0 0 1 -45.208-31.83 30 30 0 0 0 -26.792 29.83v38.676a20 20 0 0 0 9.71 17.15l20 12a20 20 0 0 0 20.58 0l20-12a20 20 0 0 0 9.71-17.15v-36.676z" fill="#ffd4cf"/><path d="m376 376h-240l-14.595-116.76a10 10 0 0 1 9.923-11.24h249.344a10 10 0 0 1 9.923 11.24z" fill="#80daff"/><circle cx="256" cy="312" fill="#f2fbff" r="16"/><path d="m128 376h256v24h-256z" fill="#25b1fa"/><path d="m236 400h-32.787a20 20 0 0 0 -19.727 23.288l12.114 72.712h48l12.119-72.712a20 20 0 0 0 -19.719-23.288z" fill="#ffd4cf"/><path d="m308 400h-32.787a20 20 0 0 0 -19.727 23.288l12.114 72.712h48l12.119-72.712a20 20 0 0 0 -19.719-23.288z" fill="#ffd4cf"/><g fill="#f29a49"><path d="m34 344h28a10 10 0 0 1 10 10v134a0 0 0 0 1 0 0h-48a0 0 0 0 1 0 0v-134a10 10 0 0 1 10-10z"/><path d="m450 344h28a10 10 0 0 1 10 10v134a0 0 0 0 1 0 0h-48a0 0 0 0 1 0 0v-134a10 10 0 0 1 10-10z"/></g></g></svg>